<?xml version="1.0" encoding="UTF-8"?>
<svg width="300px" height="35px" viewBox="0 0 300 35" version="1.1" xmlns="http://www.w3.org/2000/svg" xmlns:xlink="http://www.w3.org/1999/xlink">
    <title>logo</title>
    <g id="Page-1" stroke="none" stroke-width="1" fill="none" fill-rule="evenodd">
        <g id="logo" transform="translate(-0.000000, 0.000000)" fill="#000105" fill-rule="nonzero">
            <path d="M8.08121959,6.97834911 C8.47105678,5.99321999 9.23492695,5.50065544 10.3728301,5.50065544 C11.344789,5.50065544 12.0032978,5.93790526 12.3509904,6.8124049 C12.6986831,7.68690454 12.9278441,9.51229085 13.0384736,12.2911978 L20.5375714,11.8723863 C20.3716272,7.73431717 19.4892255,4.72361509 17.8930002,2.83237791 C16.2941409,0.9464088 13.8313182,0.000790210521 10.4966298,0.000790210521 C7.02497153,0.000790210521 4.40937471,0.993821432 2.64457121,2.97988387 C0.879767713,4.96594632 5.98910235e-13,7.91606559 5.98910235e-13,11.8328757 L5.98910235e-13,22.4954497 C5.98910235e-13,26.3569451 0.879767713,29.2649198 2.64457121,31.2220079 C4.40937471,33.18173 7.02497153,34.161591 10.4966298,34.161591 C13.8576585,34.161591 16.3362855,33.2238745 17.9351448,31.3484416 C19.53137,29.4730086 20.3979676,26.5097192 20.5375714,22.4533051 L13.0384736,22.0371276 C12.9278441,24.7607199 12.6986831,26.5439616 12.3509904,27.3921209 C12.0032978,28.2376462 11.344789,28.6617258 10.3728301,28.6617258 C9.17961222,28.6617258 8.39993784,28.1612591 8.03907503,27.1603258 C7.67821223,26.1620265 7.49909784,24.4130272 7.49909784,21.913328 L7.49909784,12.4571421 C7.49909784,9.79149856 7.69401644,7.96611226 8.08121959,6.97834911" id="Fill-131"></path>
            <path d="M37.1375238,12.3320254 C37.1375238,13.9150805 36.921533,14.9634264 36.4921853,15.4770633 C36.0602035,15.9907001 35.4306691,16.2462015 34.59568,16.2462015 L32.7650256,16.2462015 L32.7650256,5.91551596 L34.59568,5.91551596 C35.4306691,5.91551596 36.0602035,6.16048122 36.4921853,6.64514367 C36.921533,7.13244016 37.1375238,8.16761594 37.1375238,9.74803699 L37.1375238,12.3320254 Z M43.1984385,17.7476015 C43.8516792,16.3041503 44.1782996,14.5130064 44.1782996,12.3741699 L44.1782996,9.49780365 C44.1782996,6.55558648 43.4776463,4.30612053 42.0737056,2.74940581 C40.6723989,1.19532511 38.6362898,0.418284769 35.9706463,0.418284769 L25.2659278,0.418284769 L25.2659278,33.7440965 L32.7650256,33.7440965 L32.7650256,21.7039222 L33.0969141,21.7039222 L37.6379905,33.7440965 L45.3451771,33.7440965 L40.3879231,20.8294225 C41.6074814,20.2183264 42.5451978,19.1910527 43.1984385,17.7476015 L43.1984385,17.7476015 Z" id="Fill-133"></path>
            <polygon id="Fill-135" points="50.7810353 33.7438331 70.5283962 33.7438331 70.5283962 28.2466019 58.2801331 28.2466019 58.2801331 18.6639823 68.9453411 18.6639823 68.9453411 13.1641171 58.2801331 13.1641171 58.2801331 5.91525256 70.5283962 5.91525256 70.5283962 0.418021366 50.7810353 0.418021366"></polygon>
            <path d="M84.1284461,20.1219207 L86.5017117,5.79013589 L88.5009443,20.1219207 L84.1284461,20.1219207 Z M81.5866022,0.416704348 L75.2965265,33.742516 L81.8789801,33.742516 L83.2118019,25.6191519 L89.2937889,25.6191519 L90.4185218,33.742516 L97.2907193,33.742516 L91.0006436,0.416704348 L81.5866022,0.416704348 Z" id="Fill-137"></path>
            <polygon id="Fill-139" points="101.187511 5.91630617 108.059708 5.91630617 108.059708 33.7448867 115.558806 33.7448867 115.558806 5.91630617 122.433638 5.91630617 122.433638 0.416440944 101.187511 0.416440944"></polygon>
            <polygon id="Fill-141" points="127.327148 5.91630617 133.575079 5.91630617 133.575079 28.2450215 127.327148 28.2450215 127.327148 33.7448867 147.322108 33.7448867 147.322108 28.2450215 141.074177 28.2450215 141.074177 5.91630617 147.322108 5.91630617 147.322108 0.416440944 127.327148 0.416440944"></polygon>
            <polygon id="Fill-143" points="161.924145 28.2031403 160.836289 19.76896 157.190784 19.76896 159.216357 33.7451501 163.549345 33.7451501 168.003498 19.76896 164.479159 19.76896"></polygon>
            <polygon id="Fill-145" points="158.341594 0.416967752 154.382639 0.416967752 156.410846 14.3931578 160.143274 14.3931578"></polygon>
            <polygon id="Fill-147" points="174.171881 0.416967752 170.33936 0.416967752 166.106466 14.3931578 169.717728 14.3931578"></polygon>
            <polygon id="Fill-149" points="185.274076 30.4117787 179.026145 30.4117787 178.733767 33.7438331 195.02264 33.7438331 195.312383 30.4117787 189.064452 30.4117787 189.996901 19.767643 186.20389 19.767643"></polygon>
            <polygon id="Fill-151" points="191.397944 3.75007573 197.645875 3.75007573 197.938253 0.418021366 181.64938 0.418021366 181.357002 3.75007573 187.607567 3.75007573 186.675119 14.3942114 190.465495 14.3942114"></polygon>
            <path d="M218.037784,21.5698498 C218.814825,22.4259112 219.133543,23.6033249 218.996573,25.0994568 C218.856969,26.8695283 218.272213,28.2602989 217.24494,29.2717683 C216.217666,30.2806038 214.871674,30.7863385 213.20433,30.7863385 C211.705564,30.7863385 210.254211,30.5044967 208.852904,29.9355452 C207.448963,29.3692276 206.150384,28.5158003 204.957166,27.3805311 L203.5822,30.5835178 C204.609474,31.6107915 205.929125,32.4563167 207.538521,33.1200936 C209.15055,33.7865044 210.817894,34.1183929 212.537919,34.1183929 C215.427456,34.1183929 217.792819,33.2386251 219.641912,31.4738216 C221.48837,29.7116522 222.549886,27.3436547 222.829094,24.3698291 C222.987136,22.5497108 222.726367,21.0193365 222.054688,19.7681698 L215.551255,19.7681698 C216.726035,20.4372147 217.555756,21.0377747 218.037784,21.5698498" id="Fill-153"></path>
            <path d="M210.559495,11.9361299 C209.74031,11.0906047 209.40052,9.95796958 209.540124,8.54085871 C209.677094,7.01311837 210.198633,5.81199838 211.102107,4.93749874 C212.002947,4.06299909 213.190896,3.62574927 214.663322,3.62574927 C215.940829,3.62574927 217.210434,3.93129734 218.474771,4.54239348 C219.739108,5.15348961 220.937594,6.01481908 222.078131,7.12374785 L223.368808,3.8759826 C222.481138,2.87504928 221.280018,2.02952402 219.765448,1.33413876 C218.250878,0.641387539 216.704699,0.291060875 215.121644,0.291060875 C212.427026,0.291060875 210.253947,1.05229701 208.602407,2.56686718 C206.948233,4.08670541 205.997347,6.18076329 205.747113,8.85167485 C205.554829,11.1064089 205.992079,12.9370632 207.058863,14.343638 C207.072033,14.3594422 207.090471,14.3778804 207.103641,14.3936846 L214.463135,14.3936846 C212.537656,13.4507001 211.231174,12.6288811 210.559495,11.9361299" id="Fill-155"></path>
            <polygon id="Fill-157" points="236.305344 30.4117787 230.057413 30.4117787 229.765035 33.7438331 246.053908 33.7438331 246.343652 30.4117787 240.095721 30.4117787 241.028169 19.767643 237.235159 19.767643"></polygon>
            <polygon id="Fill-159" points="242.429213 3.75007573 248.677144 3.75007573 248.969522 0.418021366 232.680649 0.418021366 232.388271 3.75007573 238.638836 3.75007573 237.706388 14.3942114 241.496764 14.3942114"></polygon>
            <path d="M269.235261,22.9542986 C268.985027,25.8438351 268.437148,27.8773102 267.588989,29.0573579 C266.743463,30.2374056 265.444884,30.8274294 263.693251,30.8274294 C261.917911,30.8274294 260.716791,30.2374056 260.089891,29.0573579 C259.465625,27.8773102 259.278608,25.8438351 259.528841,22.9542986 L259.802781,19.7671162 L256.009771,19.7671162 L255.738465,22.830499 C255.403942,26.4944417 255.899141,29.3023231 257.216159,31.243607 C258.53581,33.1901589 260.59826,34.1594838 263.403507,34.1594838 C266.208754,34.1594838 268.429246,33.1901589 270.067616,31.243607 C271.705985,29.3023231 272.693749,26.4944417 273.025637,22.830499 L273.296943,19.7671162 L269.5092,19.7671162 L269.235261,22.9542986 Z" id="Fill-161"></path>
            <path d="M260.528458,11.3737634 C260.778691,8.42891222 261.32657,6.35329259 262.17473,5.14690453 C263.020255,3.93788243 264.332004,3.3346884 266.109978,3.3346884 C267.858977,3.3346884 269.046927,3.93788243 269.673827,5.14690453 C270.298094,6.35329259 270.48511,8.42891222 270.234877,11.3737634 L269.974107,14.3923676 L273.769752,14.3923676 L274.025253,11.4975631 C274.330801,7.77567153 273.838237,4.93091365 272.54756,2.95802138 C271.256883,0.987763151 269.207603,-7.48637794e-14 266.402356,-7.48637794e-14 C263.597109,-7.48637794e-14 261.360813,0.987763151 259.696103,2.95802138 C258.028758,4.93091365 257.043629,7.77567153 256.738081,11.4975631 L256.48258,14.3923676 L260.267688,14.3923676 L260.528458,11.3737634 Z" id="Fill-163"></path>
            <polygon id="Fill-165" points="294.168246 29.1614023 292.31652 19.7684332 289.392741 19.7684332 292.00307 33.7446233 297.084123 33.7446233 298.306315 19.7684332 294.984797 19.7684332"></polygon>
            <polygon id="Fill-167" points="300 0.416967752 296.667946 0.416967752 295.453655 14.3931578 298.777808 14.3931578"></polygon>
            <polygon id="Fill-169" points="286.627794 4.95804421 288.389964 14.3931578 291.258428 14.3931578 288.503227 0.416967752 283.711917 0.416967752 282.489725 14.3931578 285.808609 14.3931578"></polygon>
            <polygon id="Fill-171" points="280.795777 33.7438331 284.127831 33.7438331 285.342122 19.767643 282.017969 19.767643"></polygon>
        </g>
    </g>
</svg>